<svg width="98" height="24" viewBox="0 0 98 24" fill="none" xmlns="http://www.w3.org/2000/svg">
<path d="M21.7936 17V6.59284H23.26V17H21.7936ZM27.7173 17.205C27.2758 17.205 26.8764 17.1209 26.5189 16.9527C26.1615 16.774 25.8777 16.5164 25.6674 16.18C25.4572 15.8331 25.3521 15.3969 25.3521 14.8713C25.3521 14.4823 25.4204 14.1407 25.5571 13.8463C25.7042 13.552 25.925 13.2997 26.2193 13.0894C26.5242 12.8792 26.9131 12.7057 27.3862 12.5691C27.8593 12.4324 28.4374 12.3168 29.1207 12.2222C29.5097 12.1696 29.8251 12.117 30.0668 12.0645C30.3191 12.0119 30.5031 11.9278 30.6187 11.8122C30.7344 11.686 30.7922 11.5021 30.7922 11.2603C30.7922 10.8608 30.6555 10.5244 30.3822 10.2511C30.1089 9.97779 29.6779 9.84113 29.0892 9.84113C28.7843 9.84113 28.4742 9.89369 28.1589 9.99882C27.8435 10.1039 27.5649 10.2826 27.3231 10.5349C27.0919 10.7767 26.9447 11.1184 26.8816 11.5599L25.5571 11.1184C25.6412 10.7399 25.7778 10.3983 25.967 10.0934C26.1668 9.78857 26.4191 9.53102 26.7239 9.32078C27.0288 9.10002 27.3809 8.93182 27.7804 8.81619C28.1904 8.70055 28.6424 8.64273 29.1365 8.64273C29.8198 8.64273 30.3875 8.75837 30.8395 8.98964C31.302 9.22091 31.6437 9.57833 31.8644 10.0619C32.0957 10.5349 32.2113 11.1447 32.2113 11.891V13.7044C32.2113 14.0303 32.2166 14.3877 32.2271 14.7767C32.2481 15.1551 32.2744 15.5388 32.306 15.9277C32.3375 16.3062 32.369 16.6636 32.4006 17H31.076C31.0445 16.6636 31.0129 16.3272 30.9814 15.9908C30.9604 15.6544 30.9446 15.318 30.9341 14.9816H30.7291C30.5714 15.3706 30.3612 15.7333 30.0984 16.0697C29.8356 16.4061 29.5044 16.6794 29.105 16.8896C28.716 17.0999 28.2535 17.205 27.7173 17.205ZM28.1431 16.0381C28.3744 16.0381 28.6056 16.0013 28.8369 15.9277C29.0787 15.8542 29.3152 15.7333 29.5465 15.5651C29.7883 15.3969 30.0143 15.1814 30.2245 14.9186C30.4453 14.6558 30.6398 14.3404 30.808 13.9725V12.3956L31.2179 12.4745C31.0497 12.6427 30.8237 12.7688 30.5399 12.8529C30.2666 12.937 29.9617 13.0053 29.6253 13.0579C29.2889 13.1105 28.9525 13.1683 28.6161 13.2313C28.2797 13.2839 27.9696 13.368 27.6858 13.4836C27.4125 13.5888 27.1917 13.7412 27.0235 13.9409C26.8553 14.1407 26.7712 14.414 26.7712 14.7609C26.7712 15.1814 26.8974 15.502 27.1497 15.7228C27.402 15.933 27.7331 16.0381 28.1431 16.0381ZM34.6182 17V12.5848V8.84772H35.9113L35.7851 11.686H36.0532C36.1478 11.0658 36.295 10.5297 36.4947 10.0777C36.6944 9.62563 36.9572 9.27347 37.2831 9.02117C37.6195 8.76888 38.0347 8.64273 38.5288 8.64273C38.6339 8.64273 38.7548 8.65325 38.8915 8.67427C39.0281 8.68478 39.1858 8.72158 39.3645 8.78465L39.2857 10.2826C39.128 10.2196 38.9703 10.1775 38.8126 10.1565C38.655 10.125 38.5025 10.1092 38.3554 10.1092C37.9454 10.1092 37.588 10.2406 37.2831 10.5034C36.9888 10.7662 36.7417 11.1236 36.542 11.5757C36.3423 12.0172 36.1793 12.5165 36.0532 13.0737V17H34.6182ZM42.6696 17.205C42.2281 17.205 41.8286 17.1209 41.4712 16.9527C41.1138 16.774 40.83 16.5164 40.6197 16.18C40.4095 15.8331 40.3044 15.3969 40.3044 14.8713C40.3044 14.4823 40.3727 14.1407 40.5094 13.8463C40.6565 13.552 40.8773 13.2997 41.1716 13.0894C41.4765 12.8792 41.8654 12.7057 42.3385 12.5691C42.8115 12.4324 43.3897 12.3168 44.073 12.2222C44.462 12.1696 44.7773 12.117 45.0191 12.0645C45.2714 12.0119 45.4554 11.9278 45.571 11.8122C45.6867 11.686 45.7445 11.5021 45.7445 11.2603C45.7445 10.8608 45.6078 10.5244 45.3345 10.2511C45.0612 9.97779 44.6302 9.84113 44.0415 9.84113C43.7366 9.84113 43.4265 9.89369 43.1111 9.99882C42.7958 10.1039 42.5172 10.2826 42.2754 10.5349C42.0441 10.7767 41.897 11.1184 41.8339 11.5599L40.5094 11.1184C40.5935 10.7399 40.7301 10.3983 40.9193 10.0934C41.1191 9.78857 41.3714 9.53102 41.6762 9.32078C41.9811 9.10002 42.3332 8.93182 42.7327 8.81619C43.1427 8.70055 43.5947 8.64273 44.0888 8.64273C44.7721 8.64273 45.3397 8.75837 45.7918 8.98964C46.2543 9.22091 46.596 9.57833 46.8167 10.0619C47.048 10.5349 47.1636 11.1447 47.1636 11.891V13.7044C47.1636 14.0303 47.1689 14.3877 47.1794 14.7767C47.2004 15.1551 47.2267 15.5388 47.2582 15.9277C47.2898 16.3062 47.3213 16.6636 47.3529 17H46.0283C45.9968 16.6636 45.9652 16.3272 45.9337 15.9908C45.9127 15.6544 45.8969 15.318 45.8864 14.9816H45.6814C45.5237 15.3706 45.3135 15.7333 45.0507 16.0697C44.7879 16.4061 44.4567 16.6794 44.0573 16.8896C43.6683 17.0999 43.2058 17.205 42.6696 17.205ZM43.0954 16.0381C43.3266 16.0381 43.5579 16.0013 43.7892 15.9277C44.031 15.8542 44.2675 15.7333 44.4988 15.5651C44.7405 15.3969 44.9666 15.1814 45.1768 14.9186C45.3976 14.6558 45.592 14.3404 45.7602 13.9725V12.3956L46.1702 12.4745C46.002 12.6427 45.776 12.7688 45.4922 12.8529C45.2189 12.937 44.914 13.0053 44.5776 13.0579C44.2412 13.1105 43.9048 13.1683 43.5684 13.2313C43.232 13.2839 42.9219 13.368 42.6381 13.4836C42.3648 13.5888 42.144 13.7412 41.9758 13.9409C41.8076 14.1407 41.7235 14.414 41.7235 14.7609C41.7235 15.1814 41.8497 15.502 42.102 15.7228C42.3543 15.933 42.6854 16.0381 43.0954 16.0381ZM53.0711 17.2208C52.1671 17.2208 51.3892 16.9947 50.7374 16.5427C50.0961 16.0907 49.6021 15.4652 49.2552 14.6663C48.9188 13.8568 48.7506 12.9265 48.7506 11.8753C48.7506 11.0974 48.8452 10.3773 49.0344 9.71499C49.2341 9.0422 49.539 8.45877 49.949 7.96469C50.359 7.4601 50.8793 7.07115 51.51 6.79783C52.1408 6.514 52.8924 6.37208 53.7649 6.37208C54.5008 6.37208 55.1315 6.47195 55.6571 6.67168C56.1933 6.87141 56.6295 7.14999 56.9659 7.50741C57.3023 7.86482 57.5388 8.28006 57.6755 8.75311C57.8122 9.21565 57.8542 9.71499 57.8017 10.2511L55.4206 10.5349C55.4416 10.0619 55.3838 9.67819 55.2472 9.38385C55.1105 9.07899 54.9055 8.85298 54.6322 8.70581C54.3694 8.55863 54.0488 8.48505 53.6703 8.48505C53.2183 8.48505 52.8241 8.60594 52.4877 8.84772C52.1513 9.08951 51.8885 9.45218 51.6993 9.93574C51.5206 10.4193 51.4312 11.0238 51.4312 11.7491C51.4312 12.2852 51.4838 12.7688 51.5889 13.1998C51.694 13.6203 51.8517 13.9777 52.0619 14.2721C52.2722 14.5559 52.5297 14.7767 52.8346 14.9343C53.15 15.0815 53.5074 15.1551 53.9069 15.1551C54.3063 15.1551 54.648 15.0868 54.9318 14.9501C55.2156 14.8029 55.4311 14.6085 55.5783 14.3667C55.736 14.1144 55.8148 13.8253 55.8148 13.4994H54.1749V11.7018H58.0855V13.6571V17H56.3352V14.1932H56.1933C56.1407 14.845 55.983 15.3969 55.7202 15.8489C55.4679 16.3009 55.1158 16.6426 54.6637 16.8739C54.2222 17.1051 53.6913 17.2208 53.0711 17.2208ZM61.3245 17.2208C60.9041 17.2208 60.5046 17.1472 60.1261 17C59.7477 16.8528 59.4376 16.6163 59.1958 16.2904C58.954 15.954 58.8331 15.5073 58.8331 14.9501C58.8331 14.435 58.933 14.0198 59.1327 13.7044C59.3325 13.3785 59.6005 13.121 59.9369 12.9317C60.2733 12.732 60.6412 12.5848 61.0407 12.4902C61.4402 12.3851 61.8344 12.2958 62.2233 12.2222C62.77 12.117 63.18 12.0329 63.4533 11.9699C63.7266 11.9068 63.9106 11.8332 64.0052 11.7491C64.1103 11.665 64.1629 11.5494 64.1629 11.4022C64.1629 11.0974 64.0472 10.8661 63.816 10.7084C63.5952 10.5507 63.3009 10.4719 62.9329 10.4719C62.7017 10.4719 62.4704 10.5139 62.2391 10.598C62.0078 10.6821 61.8186 10.8345 61.6714 11.0553C61.5243 11.2655 61.4559 11.5704 61.4665 11.9699L59.1958 11.8122C59.1748 11.1499 59.2746 10.6033 59.4954 10.1723C59.7162 9.73075 60.0158 9.38911 60.3942 9.14732C60.7832 8.89503 61.2037 8.71632 61.6557 8.6112C62.1182 8.50607 62.5755 8.45351 63.0275 8.45351C63.858 8.45351 64.5413 8.6112 65.0774 8.92656C65.6136 9.23142 66.0078 9.67819 66.2601 10.2669C66.5229 10.8451 66.6543 11.5494 66.6543 12.3799V13.8621C66.6543 14.209 66.6543 14.5611 66.6543 14.9186C66.6543 15.2655 66.6543 15.6124 66.6543 15.9593C66.6543 16.3062 66.6543 16.6531 66.6543 17H64.4467C64.4467 16.6216 64.4467 16.2379 64.4467 15.8489C64.4467 15.46 64.4467 15.05 64.4467 14.619H64.3521C64.31 15.092 64.1523 15.5283 63.879 15.9277C63.6162 16.3167 63.2641 16.6321 62.8225 16.8739C62.3915 17.1051 61.8922 17.2208 61.3245 17.2208ZM62.381 15.3601C62.5597 15.3601 62.749 15.3285 62.9487 15.2655C63.1589 15.1919 63.3534 15.0763 63.5321 14.9186C63.7213 14.7609 63.8738 14.5454 63.9894 14.2721C64.105 13.9882 64.1629 13.6413 64.1629 13.2313V12.8529L64.5886 12.8056C64.5045 12.9423 64.3626 13.0526 64.1629 13.1367C63.9736 13.2208 63.7581 13.2892 63.5164 13.3417C63.2746 13.3838 63.0275 13.4311 62.7752 13.4836C62.5335 13.5257 62.3074 13.5888 62.0972 13.6729C61.8869 13.7464 61.7135 13.8516 61.5768 13.9882C61.4507 14.1144 61.3876 14.2931 61.3876 14.5244C61.3876 14.7977 61.4822 15.0079 61.6714 15.1551C61.8712 15.2918 62.1077 15.3601 62.381 15.3601ZM67.6945 17V12.3799V8.67427H69.8548V12.0645H69.9809C70.0545 11.1814 70.1964 10.4771 70.4067 9.95151C70.6274 9.4259 70.9165 9.04746 71.2739 8.81619C71.6419 8.5744 72.0781 8.45351 72.5827 8.45351C73.1083 8.45351 73.5341 8.58491 73.8599 8.84772C74.1858 9.10002 74.4276 9.49423 74.5853 10.0304C74.743 10.556 74.8166 11.234 74.8061 12.0645H74.9322C75.0058 11.192 75.1582 10.4929 75.3895 9.96728C75.6208 9.44167 75.9256 9.05797 76.3041 8.81619C76.6825 8.5744 77.1293 8.45351 77.6444 8.45351C78.0754 8.45351 78.4486 8.53235 78.7639 8.69004C79.0793 8.84772 79.3421 9.08425 79.5524 9.39962C79.7731 9.71499 79.9361 10.1145 80.0412 10.598C80.1463 11.0711 80.1989 11.6282 80.1989 12.2695V17H77.6444V12.4902C77.6444 12.0908 77.6076 11.7596 77.534 11.4968C77.4709 11.2235 77.3711 11.0238 77.2344 10.8976C77.0977 10.761 76.9243 10.6926 76.714 10.6926C76.4407 10.6926 76.1884 10.8188 75.9572 11.0711C75.7259 11.3129 75.5367 11.6808 75.3895 12.1749C75.2528 12.6689 75.1845 13.2944 75.1845 14.0513V17H72.6931V12.4272C72.6931 12.0277 72.6563 11.7018 72.5827 11.4495C72.5196 11.1972 72.4145 11.008 72.2673 10.8818C72.1307 10.7557 71.9572 10.6926 71.747 10.6926C71.4842 10.6926 71.2371 10.803 71.0059 11.0238C70.7851 11.234 70.6011 11.5862 70.454 12.0803C70.3173 12.5743 70.249 13.2313 70.249 14.0513V17H67.6945ZM85.2188 17.2208C84.4303 17.2208 83.7681 17.1104 83.2319 16.8896C82.7063 16.6584 82.2806 16.3482 81.9547 15.9593C81.6288 15.5598 81.3923 15.1078 81.2451 14.6032C81.1085 14.0986 81.0401 13.5677 81.0401 13.0106C81.0401 12.4114 81.1137 11.8385 81.2609 11.2918C81.4186 10.7452 81.6551 10.2616 81.9705 9.84113C82.2963 9.41013 82.7116 9.07374 83.2162 8.83195C83.7313 8.57966 84.3462 8.45351 85.0611 8.45351C85.7759 8.45351 86.3856 8.57966 86.8902 8.83195C87.4053 9.07374 87.8153 9.41539 88.1202 9.8569C88.425 10.2984 88.6195 10.8083 88.7036 11.3864C88.7982 11.9646 88.7877 12.5901 88.672 13.2629L82.6327 13.3575V11.9699L86.7168 11.891L86.3856 12.6952C86.4487 12.2117 86.4382 11.8069 86.3541 11.481C86.2805 11.1447 86.1386 10.8924 85.9283 10.7242C85.7181 10.5455 85.429 10.4561 85.0611 10.4561C84.6721 10.4561 84.362 10.556 84.1307 10.7557C83.8995 10.9554 83.7365 11.2393 83.6419 11.6072C83.5473 11.9646 83.5 12.3904 83.5 12.8844C83.5 13.7359 83.6419 14.3562 83.9257 14.7451C84.2096 15.1341 84.6458 15.3285 85.2345 15.3285C85.4868 15.3285 85.6971 15.297 85.8653 15.2339C86.0335 15.1709 86.1701 15.0815 86.2752 14.9659C86.3804 14.8397 86.454 14.6926 86.496 14.5244C86.5381 14.3456 86.5538 14.1459 86.5433 13.9252L88.877 14.0513C88.9086 14.3982 88.8718 14.7556 88.7667 15.1236C88.672 15.4915 88.4881 15.8331 88.2148 16.1485C87.9414 16.4639 87.5577 16.7214 87.0637 16.9212C86.5801 17.1209 85.9651 17.2208 85.2188 17.2208ZM93.3728 17.2208C92.8156 17.2208 92.2953 17.1629 91.8117 17.0473C91.3386 16.9422 90.9234 16.7687 90.566 16.5269C90.2191 16.2852 89.951 15.9645 89.7618 15.5651C89.5831 15.1551 89.5095 14.661 89.541 14.0828L91.7644 13.8936C91.7854 14.2405 91.8642 14.5296 92.0009 14.7609C92.1376 14.9816 92.3268 15.1446 92.5686 15.2497C92.8104 15.3548 93.1047 15.4074 93.4516 15.4074C93.7775 15.4074 94.0561 15.3548 94.2873 15.2497C94.5291 15.1341 94.65 14.9448 94.65 14.682C94.65 14.5454 94.608 14.435 94.5239 14.3509C94.4398 14.2563 94.2821 14.1722 94.0508 14.0986C93.83 14.0145 93.5042 13.9199 93.0732 13.8148C92.537 13.6781 92.0535 13.5415 91.6225 13.4048C91.1915 13.2681 90.8235 13.1052 90.5187 12.916C90.2138 12.7268 89.9825 12.4955 89.8249 12.2222C89.6672 11.9383 89.5883 11.5914 89.5883 11.1814C89.5883 10.6033 89.7408 10.1145 90.0456 9.71499C90.361 9.30501 90.792 8.99489 91.3386 8.78465C91.8853 8.56389 92.516 8.45351 93.2308 8.45351C93.8721 8.45351 94.4713 8.55338 95.0284 8.75311C95.5856 8.95285 96.0219 9.27873 96.3372 9.73075C96.6631 10.1828 96.784 10.782 96.6999 11.5284L94.5239 11.7333C94.5554 11.4285 94.5133 11.1709 94.3977 10.9607C94.2821 10.7399 94.1139 10.577 93.8931 10.4719C93.6724 10.3562 93.4043 10.2984 93.0889 10.2984C92.7315 10.2984 92.4529 10.3667 92.2532 10.5034C92.064 10.6296 91.9694 10.7925 91.9694 10.9922C91.9694 11.1499 92.0272 11.2866 92.1428 11.4022C92.269 11.5073 92.4582 11.6019 92.7105 11.686C92.9733 11.7596 93.3097 11.8437 93.7197 11.9383C94.0771 12.0119 94.4503 12.1065 94.8392 12.2222C95.2282 12.3378 95.5909 12.4955 95.9272 12.6952C96.2636 12.8844 96.537 13.1367 96.7472 13.4521C96.9575 13.7675 97.0626 14.1669 97.0626 14.6505C97.0626 15.1656 96.9207 15.6176 96.6368 16.0066C96.353 16.3955 95.9378 16.6951 95.3911 16.9054C94.8445 17.1156 94.1717 17.2208 93.3728 17.2208Z" fill="white"/>
<path d="M3.125 5.95853C3.15401 6.1181 3.22655 6.26317 3.3426 6.37922C3.58921 6.62583 3.93736 6.68386 4.22749 6.5533C4.32903 6.50978 4.41607 6.45175 4.50311 6.37922C4.53213 6.35021 4.57564 6.30669 4.60465 6.26317C4.60465 6.26317 4.61916 6.23416 4.63367 6.21965C4.63367 6.20514 4.64817 6.19064 4.66268 6.17613C4.82225 5.87149 4.77873 5.47982 4.51762 5.2187C4.2565 4.95759 3.86483 4.91407 3.56019 5.07364C3.54569 5.07364 3.53117 5.08815 3.51667 5.10265C3.51667 5.10265 3.48766 5.11716 3.47315 5.13167C3.42963 5.16068 3.40062 5.18969 3.3571 5.23321C3.27006 5.32025 3.21203 5.40729 3.18302 5.50883C3.1395 5.61038 3.125 5.71192 3.125 5.81347C3.125 5.91501 3.125 5.91501 3.1395 5.97304L3.125 5.95853Z" fill="#C27AFF"/>
<path d="M5.11324 8.16371L7.66638 10.7168C7.98552 11.036 8.50776 11.036 8.8269 10.7168C8.85591 10.6878 8.87042 10.6733 8.89943 10.6443C9.14604 10.3252 9.13153 9.86096 8.8414 9.55633L6.28827 7.00319C6.05617 6.77109 5.72251 6.71306 5.43239 6.81461C5.43239 6.81461 5.40337 6.81461 5.40337 6.82911C5.35985 6.84362 5.33084 6.87263 5.28732 6.88714C5.28732 6.88714 5.28732 6.88714 5.27282 6.88714C5.2293 6.91615 5.18578 6.94517 5.15677 6.98869C4.9972 7.14826 4.91016 7.35135 4.91016 7.56894C4.91016 7.78654 4.92466 7.77204 4.96818 7.87358C5.0117 7.97513 5.06972 8.06216 5.14226 8.1492L5.11324 8.16371Z" fill="#C27AFF"/>
<path d="M8.39256 7.56894C8.55213 7.72851 8.75522 7.81555 8.97282 7.81555C9.07436 7.81555 9.1759 7.80104 9.27745 7.75752C9.37899 7.714 9.46603 7.65598 9.55307 7.58345C9.58209 7.55443 9.6256 7.51091 9.64011 7.46739C9.64011 7.46739 9.65462 7.43838 9.66912 7.42387C9.66912 7.40937 9.68363 7.39486 9.69814 7.38035C9.85771 7.07572 9.81419 6.68405 9.55307 6.42293L8.21848 5.08833C7.95736 4.82722 7.56569 4.7837 7.26106 4.94327C7.24655 4.94327 7.23204 4.95778 7.21753 4.97228C7.20302 4.97228 7.18852 4.98679 7.17401 5.0013C7.13049 5.03031 7.10148 5.05932 7.05796 5.08833C6.94191 5.20439 6.86938 5.34945 6.84036 5.50902C6.79685 5.77014 6.86938 6.04576 7.05796 6.24885L8.39256 7.58345V7.56894Z" fill="#C27AFF"/>
<path d="M13.8604 12.0948C13.8604 12.0803 13.8459 12.0658 13.8314 12.0513C13.8314 12.0368 13.8169 12.0223 13.8023 12.0078C13.7733 11.9642 13.7443 11.9352 13.7008 11.8917C13.3817 11.5726 12.8594 11.5726 12.5403 11.8917L11.2057 13.2263C11.0026 13.4294 10.9301 13.705 10.9881 13.9661C11.0171 14.1257 11.0896 14.2708 11.2057 14.3868C11.2347 14.4158 11.2782 14.4593 11.3217 14.4738C11.3217 14.4738 11.3508 14.4884 11.3653 14.5029C11.3798 14.5029 11.3943 14.5174 11.4088 14.5319C11.7134 14.6914 12.1051 14.6479 12.3662 14.3868L13.7008 13.0522C13.9619 12.7911 14.0054 12.3994 13.8459 12.0948H13.8604Z" fill="#C27AFF"/>
<path d="M7.8525 13.2556C7.88151 13.4152 7.95404 13.5603 8.07009 13.6763C8.09911 13.7054 8.11361 13.7199 8.14262 13.7489C8.46177 13.9955 8.92597 13.981 9.23061 13.6908L11.7837 11.1377C12.0158 10.9056 12.0739 10.572 11.9723 10.2818C11.9723 10.2818 11.9723 10.2528 11.9578 10.2528C11.9433 10.2093 11.9143 10.1803 11.8998 10.1368C11.8998 10.1368 11.8998 10.1368 11.8998 10.1223C11.8708 10.0787 11.8418 10.0352 11.7983 10.0062C11.6822 9.89015 11.5371 9.81762 11.3776 9.78861C11.1164 9.74509 10.8408 9.81762 10.6377 10.0062L8.0846 12.5593C7.8815 12.7624 7.80897 13.0381 7.867 13.2992L7.8525 13.2556Z" fill="#C27AFF"/>
<path d="M12.4101 9.33849C12.4391 9.3675 12.4826 9.41102 12.5262 9.44004C12.5262 9.44004 12.5552 9.45454 12.5697 9.46905C12.5842 9.46905 12.5987 9.48356 12.6132 9.49806C12.9178 9.65763 13.3095 9.61411 13.5706 9.353C13.8318 9.09188 13.8753 8.70021 13.7157 8.39557C13.7157 8.38106 13.7012 8.36656 13.6867 8.35205C13.6867 8.35205 13.6722 8.32304 13.6577 8.30853C13.6287 8.26501 13.5996 8.236 13.5561 8.19248C13.237 7.87334 12.7147 7.87334 12.3956 8.19248C12.0765 8.51162 12.0765 9.03386 12.3956 9.353L12.4101 9.33849Z" fill="#C27AFF"/>
<path d="M10.6125 17.2594C10.3659 17.0128 10.0177 16.9548 9.72758 17.0854C9.62604 17.1289 9.539 17.1869 9.45196 17.2594C9.42294 17.2885 9.37942 17.332 9.35041 17.3755C9.35041 17.3755 9.3359 17.4045 9.3214 17.419C9.3214 17.4335 9.3069 17.448 9.29239 17.4625C9.13282 17.7672 9.17634 18.1588 9.43745 18.42C9.69857 18.6811 10.0902 18.7246 10.3949 18.565C10.4094 18.565 10.4239 18.5505 10.4384 18.536C10.4384 18.536 10.4674 18.5215 10.4819 18.507C10.5254 18.478 10.5545 18.449 10.598 18.4055C10.9171 18.0863 10.9171 17.5641 10.598 17.2449L10.6125 17.2594Z" fill="#C27AFF"/>
<path d="M8.84218 15.475L6.28905 12.9218C6.173 12.8058 6.02793 12.7333 5.86836 12.7042C5.76681 12.6897 5.66526 12.6897 5.54921 12.7042C5.38964 12.7333 5.24458 12.8058 5.12853 12.9218C5.09952 12.9508 5.08501 12.9654 5.056 12.9944C4.80939 13.3135 4.82389 13.7777 5.11402 14.0824L7.66716 16.6355C7.89926 16.8676 8.23291 16.9256 8.52304 16.8241C8.52304 16.8241 8.55205 16.8241 8.55205 16.8096C8.59557 16.7951 8.62458 16.766 8.6681 16.7515C8.6681 16.7515 8.66811 16.7515 8.68261 16.7515C8.72613 16.7225 8.76965 16.6935 8.79866 16.65C8.91471 16.5339 8.98725 16.3889 9.01626 16.2293C9.04527 16.0697 9.03077 15.9102 8.97274 15.7651C8.92922 15.6636 8.87119 15.5765 8.79866 15.4895L8.84218 15.475Z" fill="#C27AFF"/>
<path d="M5.57732 16.0553C5.37423 15.8522 5.09861 15.7797 4.83749 15.8377C4.67792 15.8667 4.53285 15.9392 4.4168 16.0553C4.38779 16.0843 4.34427 16.1278 4.31525 16.1714C4.31525 16.1714 4.30076 16.2004 4.28625 16.2149C4.28625 16.2294 4.27174 16.2439 4.25723 16.2584C4.09766 16.563 4.14118 16.9547 4.4023 17.2158L5.73689 18.5504C5.99801 18.8115 6.38968 18.855 6.69432 18.6955C6.70882 18.6955 6.72333 18.681 6.73783 18.6665C6.75234 18.6665 6.76685 18.652 6.78135 18.6374C6.82487 18.6084 6.85389 18.5794 6.89741 18.5359C7.21655 18.2168 7.21655 17.6945 6.89741 17.3754L5.56281 16.0408L5.57732 16.0553Z" fill="#C27AFF"/>
<path d="M1.76088 14.7208C1.73187 14.5612 1.65934 14.4162 1.54328 14.3001C1.51427 14.2711 1.47075 14.2276 1.42723 14.1986C1.42723 14.1986 1.39822 14.1841 1.38372 14.1695C1.36921 14.1695 1.3547 14.155 1.34019 14.1405C1.03555 13.981 0.643883 14.0245 0.382767 14.2856C0.121651 14.5467 0.0781316 14.9384 0.237703 15.243C0.237703 15.2575 0.252211 15.272 0.266717 15.2865C0.266717 15.2865 0.281226 15.3156 0.295732 15.3301C0.324745 15.3736 0.353751 15.4026 0.39727 15.4461C0.716412 15.7653 1.23864 15.7653 1.55779 15.4461C1.71736 15.2865 1.8044 15.0835 1.8044 14.8659C1.8044 14.8078 1.8044 14.7643 1.7899 14.7063L1.76088 14.7208Z" fill="#C27AFF"/>
<path d="M6.05401 10.8474C6.09752 10.7459 6.11203 10.6443 6.11203 10.5428C6.11203 10.4412 6.11204 10.4412 6.09753 10.3832C6.06852 10.2236 5.99599 10.0786 5.87994 9.96251C5.85092 9.9335 5.83642 9.91899 5.8074 9.88998C5.48826 9.64337 5.02405 9.65788 4.71942 9.94801L2.16628 12.5011C1.93417 12.7332 1.87615 13.0669 1.9777 13.357C1.9777 13.357 1.97769 13.386 1.9922 13.386C2.0067 13.4296 2.03572 13.4586 2.05023 13.5021C2.05023 13.5021 2.05023 13.5021 2.05023 13.5166C2.07924 13.5601 2.10826 13.6036 2.15177 13.6326C2.47092 13.9518 2.99315 13.9518 3.31229 13.6326L5.86542 11.0795C5.95246 10.9925 6.01049 10.9054 6.0395 10.8039L6.05401 10.8474Z" fill="#C27AFF"/>
<path d="M0.107674 11.6015C0.107674 11.616 0.122183 11.6305 0.136689 11.645C0.165702 11.6885 0.194717 11.7175 0.238236 11.761C0.354288 11.8771 0.499356 11.9496 0.658927 11.9786C0.716953 11.9786 0.760468 11.9931 0.818494 11.9931C0.920039 11.9931 1.02158 11.9786 1.12313 11.9351C1.22467 11.8916 1.31171 11.8336 1.39875 11.761L2.73335 10.4264C3.05249 10.1073 3.05249 9.58507 2.73335 9.26592C2.70434 9.23691 2.66082 9.19339 2.6173 9.16438C2.6173 9.16438 2.58828 9.14987 2.57377 9.13537C2.55927 9.13537 2.54476 9.12086 2.53025 9.10635C2.22562 8.94678 1.83395 8.9903 1.57283 9.25142L0.238236 10.586C-0.0228803 10.8471 -0.0663996 11.2388 0.0931714 11.5434C0.0931714 11.5579 0.10768 11.5725 0.122186 11.587L0.107674 11.6015Z" fill="#C27AFF"/>
</svg>
